<svg width="21" height="24" viewBox="0 0 21 24" fill="none" xmlns="http://www.w3.org/2000/svg">
<path d="M18.75 10.5C19.375 10.5 19.9062 10.7188 20.3438 11.1562C20.7812 11.5938 21 12.125 21 12.75V21.75C21 22.375 20.7812 22.9062 20.3438 23.3438C19.9062 23.7812 19.375 24 18.75 24H2.25C1.625 24 1.09375 23.7812 0.65625 23.3438C0.21875 22.9062 0 22.375 0 21.75V12.75C0 12.125 0.21875 11.5938 0.65625 11.1562C1.09375 10.7188 1.625 10.5 2.25 10.5H3.375V7.125C3.375 5.15625 4.0625 3.48437 5.4375 2.10938C6.84375 0.703125 8.53125 0 10.5 0C12.4688 0 14.1406 0.703125 15.5156 2.10938C16.9219 3.48437 17.625 5.15625 17.625 7.125V10.5H18.75ZM13.875 10.5V7.125C13.875 6.1875 13.5469 5.39062 12.8906 4.73438C12.2344 4.07812 11.4375 3.75 10.5 3.75C9.5625 3.75 8.76562 4.07812 8.10938 4.73438C7.45312 5.39062 7.125 6.1875 7.125 7.125V10.5H13.875Z" fill="#B7B7B7"/>
</svg>
